<?xml version="1.0" encoding="UTF-8" standalone="no"?>
<svg
   version="1.1"
   width="88.0495"
   height="31.597132"
   viewBox="0 0 88.0495 31.597132"
   fill="none"
   xmlns:xlink="http://www.w3.org/1999/xlink"
   xmlns="http://www.w3.org/2000/svg">
  <defs
     id="defs1151">
    <linearGradient
       id="linearGradient3251"
       x1="31.4312"
       y1="28.097799"
       x2="93.054703"
       y2="27.4592"
       gradientUnits="userSpaceOnUse">
      <stop
         stopColor="#3300FF"
         id="stop3247"
         offset="0"
         style="stop-color:#3300ff;stop-opacity:1;" />
      <stop
         offset="1"
         stopColor="#3300FF"
         id="stop3249"
         style="stop-color:#3300ff;stop-opacity:0.5;" />
    </linearGradient>
    <linearGradient
       id="linearGradient3207">
      <stop
         style="stop-color:#3300ff;stop-opacity:1;"
         offset="0"
         id="stop3203" />
      <stop
         style="stop-color:#3300ff;stop-opacity:0.5;"
         offset="1"
         id="stop3205" />
    </linearGradient>
    <linearGradient
       id="linearGradient2471"
       x1="31.4312"
       y1="28.097799"
       x2="93.054703"
       y2="27.4592"
       gradientUnits="userSpaceOnUse">
      <stop
         stopColor="#3300FF"
         id="stop2467"
         offset="0"
         style="stop-color:#ffffff;stop-opacity:1;" />
      <stop
         offset="1"
         stopColor="#3300FF"
         id="stop2469"
         style="stop-color:#ffffff;stop-opacity:1;" />
    </linearGradient>
    <linearGradient
       xlink:href="#linearGradient2471"
       id="linearGradient1727"
       x1="0"
       y1="17.561134"
       x2="19.7962"
       y2="17.561134"
       gradientUnits="userSpaceOnUse"
       spreadMethod="pad"
       gradientTransform="translate(0,-1.9157701)" />
    <linearGradient
       xlink:href="#linearGradient3207"
       id="linearGradient3209"
       x1="14.6875"
       y1="17.561134"
       x2="34.4837"
       y2="17.561134"
       gradientUnits="userSpaceOnUse"
       gradientTransform="translate(0,-1.9157701)" />
    <linearGradient
       xlink:href="#linearGradient3251"
       id="linearGradient3244"
       gradientUnits="userSpaceOnUse"
       x1="0"
       y1="17.561134"
       x2="19.7962"
       y2="17.561134"
       spreadMethod="pad"
       gradientTransform="translate(0,-1.91554)" />
  </defs>
  <path
     d="m 35.8119,31.59713 c -1.0558,0 -1.9686,-0.235 -2.7383,-0.705 -0.7697,-0.4768 -1.3657,-1.1477 -1.788,-2.0128 -0.4223,-0.8719 -0.6335,-1.9004 -0.6335,-3.0856 0,-1.2057 0.2078,-2.2444 0.6233,-3.1163 0.4223,-0.8787 1.0149,-1.5531 1.7778,-2.0231 0.7697,-0.47 1.6824,-0.705 2.7382,-0.705 1.0695,0 1.9822,0.2453 2.7383,0.7357 0.7629,0.4836 1.3419,1.1852 1.7369,2.1048 0.4019,0.9195 0.5927,2.0264 0.5722,3.3206 h -1.2261 v -0.4087 c -0.034,-1.5122 -0.3746,-2.6633 -1.0217,-3.4535 -0.6471,-0.7901 -1.5735,-1.1852 -2.7791,-1.1852 -1.2465,0 -2.2104,0.4121 -2.8915,1.2363 -0.6744,0.8174 -1.0116,1.9754 -1.0116,3.4739 0,1.485 0.3372,2.6361 1.0116,3.4535 0.6811,0.8174 1.6381,1.2261 2.871,1.2261 0.8515,0 1.5939,-0.1975 2.2274,-0.5926 0.6403,-0.4019 1.1478,-0.9741 1.5224,-1.7165 l 1.0626,0.47 c -0.4427,0.9536 -1.083,1.6892 -1.9208,2.2069 -0.8379,0.5177 -1.7949,0.7765 -2.8711,0.7765 z m -4.3526,-5.4867 v -1.0626 h 8.7154 v 1.0626 z"
     fill="url(#paint0_linear_56_57)"
     id="path1153"
     style="fill:#3300ff;fill-opacity:1" />
  <path
     d="m 44.8659,31.29063 -4.0052,-11.0347 h 1.2159 l 3.4126,9.4306 3.4023,-9.4306 h 1.2261 l -4.0052,11.0347 z"
     fill="url(#paint1_linear_56_57)"
     id="path1155"
     style="fill:#3300ff;fill-opacity:1" />
  <path
     d="m 55.2903,31.59713 c -1.0558,0 -1.9685,-0.235 -2.7382,-0.705 -0.7697,-0.4768 -1.3657,-1.1477 -1.7881,-2.0128 -0.4223,-0.8719 -0.6334,-1.9004 -0.6334,-3.0856 0,-1.2057 0.2077,-2.2444 0.6232,-3.1163 0.4223,-0.8787 1.0149,-1.5531 1.7778,-2.0231 0.7698,-0.47 1.6825,-0.705 2.7383,-0.705 1.0694,0 1.9822,0.2453 2.7383,0.7357 0.7629,0.4836 1.3418,1.1852 1.7369,2.1048 0.4019,0.9195 0.5926,2.0264 0.5722,3.3206 h -1.2261 v -0.4087 c -0.0341,-1.5122 -0.3746,-2.6633 -1.0217,-3.4535 -0.6471,-0.7901 -1.5735,-1.1852 -2.7792,-1.1852 -1.2465,0 -2.2103,0.4121 -2.8915,1.2363 -0.6743,0.8174 -1.0115,1.9754 -1.0115,3.4739 0,1.485 0.3372,2.6361 1.0115,3.4535 0.6812,0.8174 1.6382,1.2261 2.8711,1.2261 0.8514,0 1.5939,-0.1975 2.2274,-0.5926 0.6403,-0.4019 1.1477,-0.9741 1.5224,-1.7165 l 1.0626,0.47 c -0.4428,0.9536 -1.0831,1.6892 -1.9209,2.2069 -0.8378,0.5177 -1.7948,0.7765 -2.8711,0.7765 z m -4.3526,-5.4867 v -1.0626 h 8.7155 v 1.0626 z"
     fill="url(#paint2_linear_56_57)"
     id="path1157"
     style="fill:#3300ff;fill-opacity:1" />
  <path
     d="m 69.5426,31.29063 v -5.7421 c 0,-0.6948 -0.0715,-1.3147 -0.2146,-1.8596 -0.1362,-0.5449 -0.3473,-1.0081 -0.6334,-1.3896 -0.2793,-0.3814 -0.6335,-0.6709 -1.0626,-0.8684 -0.4224,-0.1976 -0.923,-0.2963 -1.502,-0.2963 -0.5994,0 -1.1205,0.1055 -1.5633,0.3167 -0.4359,0.2043 -0.7969,0.4938 -1.083,0.8685 -0.2793,0.3746 -0.4904,0.8208 -0.6335,1.3384 -0.1362,0.5109 -0.2043,1.0695 -0.2043,1.6757 l -0.9298,-0.1124 c 0,-1.192 0.2009,-2.1729 0.6028,-2.9426 0.4087,-0.7765 0.9571,-1.3487 1.645,-1.7165 0.688,-0.3747 1.4611,-0.562 2.3194,-0.562 0.6062,0 1.1477,0.0886 1.6245,0.2657 0.4837,0.1771 0.9026,0.4291 1.2568,0.7561 0.3542,0.3201 0.6471,0.7016 0.8787,1.1443 0.2316,0.4359 0.4018,0.9162 0.5108,1.4407 0.1158,0.5244 0.1737,1.0728 0.1737,1.645 v 6.0384 z m -8.0819,0 v -11.0347 h 1.0728 v 2.4828 h 0.1124 v 8.5519 z"
     fill="url(#paint3_linear_56_57)"
     id="path1159"
     style="fill:#3300ff;fill-opacity:1" />
  <path
     d="m 78.4114,31.29063 c -0.5858,0.1294 -1.1647,0.1771 -1.7369,0.1431 -0.5722,-0.0273 -1.083,-0.1533 -1.5326,-0.3781 -0.4428,-0.2316 -0.7765,-0.5858 -1.0013,-1.0626 -0.1839,-0.3882 -0.2861,-0.7799 -0.3065,-1.175 -0.0205,-0.3951 -0.0307,-0.848 -0.0307,-1.3589 v -10.2685 h 1.1852 v 10.2481 c 0,0.4632 0.0034,0.848 0.0102,1.1545 0.0137,0.2997 0.0852,0.5756 0.2146,0.8276 0.2452,0.47 0.6335,0.7561 1.1648,0.8583 0.5313,0.0954 1.209,0.0783 2.0332,-0.0511 z m -7.0806,-9.9619 v -1.0728 h 7.0806 v 1.0728 z"
     fill="url(#paint4_linear_56_57)"
     id="path1161"
     style="fill:#3300ff;fill-opacity:1" />
  <path
     d="m 83.7786,31.57673 c -1.2738,0 -2.3262,-0.2691 -3.1572,-0.8072 -0.8242,-0.5381 -1.335,-1.2874 -1.5326,-2.2478 l 1.2057,-0.2043 c 0.1703,0.6539 0.5721,1.175 1.2056,1.5632 0.6335,0.3883 1.41,0.5824 2.3296,0.5824 0.9127,0 1.6382,-0.1941 2.1763,-0.5824 0.5381,-0.3882 0.8072,-0.9195 0.8072,-1.5939 0,-0.3678 -0.0852,-0.6675 -0.2555,-0.8991 -0.1635,-0.2384 -0.4904,-0.4564 -0.9808,-0.6539 -0.4905,-0.1976 -1.2193,-0.4292 -2.1866,-0.6948 -1.0217,-0.2725 -1.8221,-0.5449 -2.401,-0.8174 -0.5722,-0.2725 -0.9775,-0.5824 -1.2159,-0.9298 -0.2316,-0.3474 -0.3474,-0.7731 -0.3474,-1.2772 0,-0.6062 0.1737,-1.1375 0.5211,-1.5939 0.3474,-0.4631 0.831,-0.8242 1.4509,-1.083 0.6266,-0.2588 1.3487,-0.3883 2.166,-0.3883 0.8174,0 1.5531,0.1363 2.207,0.4087 0.6539,0.2657 1.1818,0.6403 1.5837,1.1239 0.4019,0.4769 0.6335,1.032 0.6948,1.6655 l -1.2057,0.2248 c -0.1158,-0.7084 -0.4734,-1.267 -1.0728,-1.6757 -0.5994,-0.4155 -1.3487,-0.6267 -2.2478,-0.6335 -0.8515,-0.0136 -1.5463,0.1567 -2.0844,0.5109 -0.5381,0.3474 -0.8072,0.8072 -0.8072,1.3793 0,0.327 0.092,0.6063 0.2759,0.8379 0.1907,0.2248 0.5245,0.4325 1.0013,0.6232 0.4768,0.1908 1.1512,0.3951 2.0231,0.6131 1.0626,0.2724 1.8902,0.5517 2.4828,0.8378 0.5994,0.2861 1.0217,0.6233 1.2669,1.0115 0.2453,0.3815 0.3679,0.8549 0.3679,1.4202 0,1.0218 -0.3815,1.8255 -1.1444,2.4113 -0.7561,0.579 -1.7982,0.8685 -3.1265,0.8685 z"
     fill="url(#paint5_linear_56_57)"
     id="path1163"
     style="fill:#3300ff;fill-opacity:1" />
  <path
     d="M 17.5654,31.29073 28.1175,5.5627999 h -13.43 V -5.3863525e-8 H 34.4837 V 5.5627999 L 23.9751,31.29073 Z"
     fill="url(#paint6_linear_56_57)"
     id="path1165"
     style="fill:url(#linearGradient3209);fill-opacity:1" />
  <path
     d="M 2.87786,31.29073 13.43,5.5627999 H 0 V -5.3863525e-8 H 19.7962 V 5.5627999 L 9.28762,31.29073 Z"
     fill="url(#paint7_linear_56_57)"
     id="path1167"
     style="fill:url(#linearGradient1727);fill-opacity:1;fill-rule:nonzero" />
  <path
     d="M 2.87786,31.29096 13.43,5.5630299 H 0 V 2.2994614e-4 H 19.7962 V 5.5630299 L 9.28762,31.29096 Z"
     fill="url(#paint7_linear_56_57)"
     id="path1167-9"
     style="fill:url(#linearGradient3244);fill-opacity:1;fill-rule:nonzero" />
</svg>
